HIERARCHY
ROOT Hips
{
	OFFSET 0.000000 0.000000 0.000000
	CHANNELS 6 Xposition Yposition Zposition Xrotation Yrotation Zrotation
	JOINT C_ctrl
	{
		OFFSET 0.000000 35.040482 -0.000011
		CHANNELS 3 Xrotation Yrotation Zrotation
		JOINT Bip01
		{
			OFFSET -41.537640 41.789009 -0.000007
			CHANNELS 3 Xrotation Yrotation Zrotation
			JOINT Bip01_Pelvis
			{
				OFFSET -2.462887 0.000000 0.000000
				CHANNELS 3 Xrotation Yrotation Zrotation
				JOINT BN_Tail_01
				{
					OFFSET -11.399368 7.351341 -0.000013
					CHANNELS 3 Xrotation Yrotation Zrotation
					JOINT BN_Tail_02
					{
						OFFSET -11.365196 -0.343025 0.000012
						CHANNELS 3 Xrotation Yrotation Zrotation
						JOINT BN_Tail_03
						{
							OFFSET -15.076256 -0.454979 0.000017
							CHANNELS 3 Xrotation Yrotation Zrotation
							JOINT BN_Tail_04
							{
								OFFSET -17.395691 -0.525002 0.000016
								CHANNELS 3 Xrotation Yrotation Zrotation
								JOINT BN_Tail_05
								{
									OFFSET -16.699837 -0.504005 0.000016
									CHANNELS 3 Xrotation Yrotation Zrotation
									End Site
									{
										OFFSET 0.503998 -16.699829 0.000067
									}
								}
							}
						}
					}
				}
				JOINT Bip01_Spine
				{
					OFFSET 8.297798 5.916809 -0.000020
					CHANNELS 3 Xrotation Yrotation Zrotation
					JOINT Bip01_R_Thigh
					{
						OFFSET -8.297779 -5.916794 10.541781
						CHANNELS 3 Xrotation Yrotation Zrotation
						JOINT Bip01_R_Calf
						{
							OFFSET 5.631542 -22.906792 0.862690
							CHANNELS 3 Xrotation Yrotation Zrotation
							JOINT Bip01_R_HorseLink
							{
								OFFSET -16.984341 -19.231926 -3.555767
								CHANNELS 3 Xrotation Yrotation Zrotation
								JOINT Bip01_R_Foot
								{
									OFFSET 4.290367 -24.783146 0.578056
									CHANNELS 3 Xrotation Yrotation Zrotation
									JOINT Bip01_R_Toe0
									{
										OFFSET 3.561211 -5.815116 0.760802
										CHANNELS 3 Xrotation Yrotation Zrotation
										JOINT Bip01_R_Toe0Nub
										{
											OFFSET 16.135469 0.002017 1.534789
											CHANNELS 3 Xrotation Yrotation Zrotation
											End Site
											{
												OFFSET -0.000002 16.208284 -0.000056
											}
										}
									}
								}
							}
						}
					}
					JOINT Bip01_L_Thigh
					{
						OFFSET -8.297813 -5.916832 -10.541739
						CHANNELS 3 Xrotation Yrotation Zrotation
						JOINT Bip01_L_Calf
						{
							OFFSET 5.631535 -22.906792 -0.862625
							CHANNELS 3 Xrotation Yrotation Zrotation
							JOINT Bip01_L_HorseLink
							{
								OFFSET -16.984318 -19.231949 3.555875
								CHANNELS 3 Xrotation Yrotation Zrotation
								JOINT Bip01_L_Foot
								{
									OFFSET 4.290367 -24.783169 -0.577965
									CHANNELS 3 Xrotation Yrotation Zrotation
									JOINT Bip01_L_Toe0
									{
										OFFSET 3.561245 -5.815111 -0.760799
										CHANNELS 3 Xrotation Yrotation Zrotation
										JOINT Bip01_L_Toe0Nub
										{
											OFFSET 6.574303 -0.000005 -1.538561
											CHANNELS 3 Xrotation Yrotation Zrotation
											End Site
											{
												OFFSET 0.000004 -6.751935 0.000023
											}
										}
									}
								}
							}
						}
					}
					JOINT Bip01_Spine1
					{
						OFFSET 20.556803 -4.626213 -0.000025
						CHANNELS 3 Xrotation Yrotation Zrotation
						JOINT Saddle
						{
							OFFSET 17.608810 18.174690 -0.000143
							CHANNELS 3 Xrotation Yrotation Zrotation
							End Site
							{
								OFFSET -0.000063 -0.000061 -22.448387
							}
						}
						JOINT BN_center
						{
							OFFSET 10.743275 -13.417107 -0.172041
							CHANNELS 3 Xrotation Yrotation Zrotation
							End Site
							{
								OFFSET 22.434088 0.553078 -0.579614
							}
						}
						JOINT Bip01_Spine2
						{
							OFFSET 24.765072 -2.054115 -0.000032
							CHANNELS 3 Xrotation Yrotation Zrotation
							JOINT Handle
							{
								OFFSET 63.735676 16.430748 -16.052464
								CHANNELS 3 Xrotation Yrotation Zrotation
								JOINT IK_Chain01
								{
									OFFSET -4.713058 -6.020439 0.185448
									CHANNELS 3 Xrotation Yrotation Zrotation
									End Site
									{
										OFFSET -0.000023 -0.000023 -7.648071
									}
								}
							}
							JOINT BN_hair04_01
							{
								OFFSET 1.987491 16.256981 -2.049672
								CHANNELS 3 Xrotation Yrotation Zrotation
								JOINT BN_hair04_02
								{
									OFFSET -1.318762 -3.831451 -6.174704
									CHANNELS 3 Xrotation Yrotation Zrotation
									JOINT BN_hair04_03
									{
										OFFSET -0.827490 -5.886627 -5.656666
										CHANNELS 3 Xrotation Yrotation Zrotation
										End Site
										{
											OFFSET -2.658262 5.010620 -5.929780
										}
									}
								}
							}
							JOINT Bip01_Neck
							{
								OFFSET 25.574577 9.433014 -0.000084
								CHANNELS 3 Xrotation Yrotation Zrotation
								JOINT Bip01_R_Clavicle
								{
									OFFSET -16.535652 0.011192 6.705692
									CHANNELS 3 Xrotation Yrotation Zrotation
									JOINT Bip01_R_UpperArm
									{
										OFFSET 20.272621 -12.959984 2.510816
										CHANNELS 3 Xrotation Yrotation Zrotation
										JOINT Bip01_R_Forearm
										{
											OFFSET -13.633509 -15.503704 -0.653585
											CHANNELS 3 Xrotation Yrotation Zrotation
											JOINT Bip01_R_Hand
											{
												OFFSET 2.580030 -27.804676 -1.136415
												CHANNELS 3 Xrotation Yrotation Zrotation
												JOINT Bip01_R_Finger0
												{
													OFFSET -0.281744 -19.659061 -0.398649
													CHANNELS 3 Xrotation Yrotation Zrotation
													JOINT Bip01_Xtra02
													{
														OFFSET 4.152210 -5.712314 0.433813
														CHANNELS 3 Xrotation Yrotation Zrotation
														JOINT Bip01_Xtra02Nub
														{
															OFFSET 15.457960 0.041654 0.507982
															CHANNELS 3 Xrotation Yrotation Zrotation
															End Site
															{
																OFFSET -15.421730 -0.157725 -1.163459
															}
														}
													}
													JOINT Bip01_R_Finger0Nub
													{
														OFFSET 8.362326 -9.718440 -0.143142
														CHANNELS 3 Xrotation Yrotation Zrotation
														End Site
														{
															OFFSET -1.213036 -0.198171 9.872291
														}
													}
												}
											}
										}
									}
								}
								JOINT Bip01_L_Clavicle
								{
									OFFSET -16.535673 0.011162 -6.705583
									CHANNELS 3 Xrotation Yrotation Zrotation
									JOINT Bip01_L_UpperArm
									{
										OFFSET 20.272615 -12.959999 -2.510836
										CHANNELS 3 Xrotation Yrotation Zrotation
										JOINT Bip01_L_Forearm
										{
											OFFSET -13.633495 -15.503681 0.653678
											CHANNELS 3 Xrotation Yrotation Zrotation
											JOINT Bip01_L_Hand
											{
												OFFSET 2.579988 -27.804686 1.136487
												CHANNELS 3 Xrotation Yrotation Zrotation
												JOINT Bip01_L_Finger0
												{
													OFFSET -0.281765 -19.659058 0.398696
													CHANNELS 3 Xrotation Yrotation Zrotation
													JOINT Bip01_Xtra01
													{
														OFFSET 4.083549 -5.738758 -0.666714
														CHANNELS 3 Xrotation Yrotation Zrotation
														JOINT Bip01_Xtra01Nub
														{
															OFFSET 6.758158 -0.395525 -0.023239
															CHANNELS 3 Xrotation Yrotation Zrotation
															End Site
															{
																OFFSET 6.764923 -0.254147 -0.029908
															}
														}
													}
													JOINT Bip01_L_Finger0Nub
													{
														OFFSET -0.012636 -9.629153 0.045740
														CHANNELS 3 Xrotation Yrotation Zrotation
														End Site
														{
															OFFSET 0.988407 0.004791 8.293357
														}
													}
												}
											}
										}
									}
								}
								JOINT BN_hair03_01
								{
									OFFSET -5.894140 16.270622 -2.498433
									CHANNELS 3 Xrotation Yrotation Zrotation
									JOINT BN_hair03_02
									{
										OFFSET -0.189278 -7.800507 -6.219162
										CHANNELS 3 Xrotation Yrotation Zrotation
										JOINT BN_hair03_03
										{
											OFFSET 0.612345 -10.844475 -3.370718
											CHANNELS 3 Xrotation Yrotation Zrotation
											End Site
											{
												OFFSET -2.273296 2.862007 -10.769416
											}
										}
									}
								}
								JOINT Bip01_Neck1
								{
									OFFSET 9.383755 11.908699 -0.000007
									CHANNELS 3 Xrotation Yrotation Zrotation
									JOINT BN_hair02_01
									{
										OFFSET 9.126320 18.808022 -1.420810
										CHANNELS 3 Xrotation Yrotation Zrotation
										JOINT BN_hair02_02
										{
											OFFSET 0.393478 -5.181091 -5.248574
											CHANNELS 3 Xrotation Yrotation Zrotation
											JOINT BN_hair02_03
											{
												OFFSET 0.762280 -8.167076 -0.230047
												CHANNELS 3 Xrotation Yrotation Zrotation
												End Site
												{
													OFFSET -0.025837 -1.251419 -8.109770
												}
											}
										}
									}
									JOINT Bip01_Head
									{
										OFFSET 14.266129 10.475403 -0.000008
										CHANNELS 3 Xrotation Yrotation Zrotation
										JOINT BN_Reins_01
										{
											OFFSET 18.547455 -15.740112 -0.000035
											CHANNELS 3 Xrotation Yrotation Zrotation
											JOINT BN_Reins_02
											{
												OFFSET -5.372810 -5.884506 0.000028
												CHANNELS 3 Xrotation Yrotation Zrotation
												JOINT BN_Reins_03
												{
													OFFSET -6.395866 -15.947449 0.000070
													CHANNELS 3 Xrotation Yrotation Zrotation
													JOINT BN_Halter_R_01
													{
														OFFSET -1.234055 -3.096100 7.096737
														CHANNELS 3 Xrotation Yrotation Zrotation
														End Site
														{
															OFFSET 10.514435 -4.176861 -0.000004
														}
													}
													JOINT BN_Halter_L_01
													{
														OFFSET -1.234062 -3.096146 -7.096726
														CHANNELS 3 Xrotation Yrotation Zrotation
														End Site
														{
															OFFSET -10.514435 4.176865 -0.000000
														}
													}
													JOINT BN_Reins_04
													{
														OFFSET -6.737644 -16.971684 0.000074
														CHANNELS 3 Xrotation Yrotation Zrotation
														JOINT BN_Halter_R_02
														{
															OFFSET -4.688869 -11.781956 7.096771
															CHANNELS 3 Xrotation Yrotation Zrotation
															End Site
															{
																OFFSET 14.669624 -5.827511 -0.000006
															}
														}
														JOINT BN_Halter_L_02
														{
															OFFSET -4.688892 -11.782017 -7.096693
															CHANNELS 3 Xrotation Yrotation Zrotation
															End Site
															{
																OFFSET -14.669624 5.827507 -0.000002
															}
														}
														JOINT BN_Reins_05
														{
															OFFSET -6.822578 -16.971161 0.000074
															CHANNELS 3 Xrotation Yrotation Zrotation
															JOINT BN_Reins_06
															{
																OFFSET -6.140354 -15.095148 0.000066
																CHANNELS 3 Xrotation Yrotation Zrotation
																End Site
																{
																	OFFSET -15.095150 6.140352 -0.000002
																}
															}
														}
													}
												}
											}
										}
										JOINT BN_hair01_01
										{
											OFFSET 8.957344 8.870956 0.112121
											CHANNELS 3 Xrotation Yrotation Zrotation
											JOINT BN_hair01_02
											{
												OFFSET 6.002075 -2.962952 -3.121264
												CHANNELS 3 Xrotation Yrotation Zrotation
												End Site
												{
													OFFSET 5.917702 3.813591 -2.232396
												}
											}
										}
										JOINT BN_Eyebrow_R
										{
											OFFSET 11.795959 -0.430496 4.449781
											CHANNELS 3 Xrotation Yrotation Zrotation
											JOINT Bip01_Xtra06Nub
											{
												OFFSET 2.936661 -0.262573 3.246701
												CHANNELS 3 Xrotation Yrotation Zrotation
												End Site
												{
													OFFSET 2.768745 0.208199 3.394807
												}
											}
										}
										JOINT BN_Eyebrow_L
										{
											OFFSET 11.586395 -0.445618 -4.441728
											CHANNELS 3 Xrotation Yrotation Zrotation
											JOINT Bip01_Xtra05Nub
											{
												OFFSET 3.244698 -0.349442 -4.416700
												CHANNELS 3 Xrotation Yrotation Zrotation
												End Site
												{
													OFFSET 3.053162 0.072495 -4.564033
												}
											}
										}
										JOINT Bip01_R_Ear_01
										{
											OFFSET 7.142960 7.567184 4.311657
											CHANNELS 3 Xrotation Yrotation Zrotation
											JOINT Bip01_Xtra04Nub
											{
												OFFSET 9.464531 9.264214 1.682953
												CHANNELS 3 Xrotation Yrotation Zrotation
												End Site
												{
													OFFSET 8.448181 10.159340 1.910823
												}
											}
										}
										JOINT Bip01__L_Ear_01
										{
											OFFSET 7.214943 7.717056 -4.356771
											CHANNELS 3 Xrotation Yrotation Zrotation
											JOINT Bip01_Xtra03Nub
											{
												OFFSET 9.230225 8.944366 -2.322746
												CHANNELS 3 Xrotation Yrotation Zrotation
												End Site
												{
													OFFSET 8.170288 9.841324 -2.643566
												}
											}
										}
										JOINT Bip01_Jaw
										{
											OFFSET 9.196068 -4.110695 -0.000013
											CHANNELS 3 Xrotation Yrotation Zrotation
											JOINT Bip01_Ponytail1Nub
											{
												OFFSET 10.976463 -21.082108 -0.000053
												CHANNELS 3 Xrotation Yrotation Zrotation
												End Site
												{
													OFFSET 11.247093 -20.938980 0.000113
												}
											}
										}
										JOINT Bip01_HeadNub
										{
											OFFSET 29.954575 -18.249489 -0.000063
											CHANNELS 3 Xrotation Yrotation Zrotation
											End Site
											{
												OFFSET -9.198448 -13.366348 0.000168
											}
										}
									}
								}
							}
						}
					}
				}
			}
		}
	}
}
MOTION
Frames: 4
Frame Time: 0.033333
0.000000 0.000000 0.000000 0.000008 0.000000 -0.000000 -0.000000 0.000000 -0.000000 0.637917 -1.843934 19.931911 -1.087557 0.368630 0.690048 -4.598578 -5.461008 19.436338 0.180025 0.157595 3.193089 -0.545486 1.214681 20.344890 5.321823 -2.894159 72.428897 1.160337 -5.096286 11.117387 1.047521 0.181346 16.501829 -5.767366 6.419263 -23.673784 4.030367 -0.509639 -20.680496 -5.005172 -1.478702 26.627819 8.859227 -3.401405 -19.360859 -0.314558 0.312518 0.554424 0.000101 -0.000137 0.000004 0.465000 -7.661573 -28.363607 -4.224668 0.572913 -21.713436 5.116526 1.543297 27.276193 -3.842209 8.418517 -14.166660 -0.068214 -0.098878 -0.034806 -0.009299 0.000416 -0.038427 -0.070167 0.973238 -21.122584 0.917530 -0.020777 6.784386 0.673773 -0.170665 0.004941 -0.020465 0.538261 3.239554 0.000078 -0.000112 -0.000059 -0.000052 -0.014928 0.015041 30.997953 4.169765 -11.421577 -41.794836 -14.287295 14.457142 -12.184234 -3.033084 4.072896 0.937095 -0.741070 -3.062385 -1.109976 1.296965 6.899601 -0.943410 -3.404975 11.374472 0.010556 0.158983 -3.885829 7.971871 4.910291 -39.047939 -0.910174 -0.153234 -8.629743 -0.853797 0.002863 -1.233605 -0.781879 0.140333 -0.478835 -0.804184 0.123485 -0.482621 -1.028164 0.937103 1.510425 7.277877 -1.207250 21.065897 -0.048644 0.557457 13.674507 -10.340356 2.327207 -42.388400 -1.340669 0.376938 -26.225058 -0.125663 2.075281 -0.686203 0.036580 0.063819 2.451909 -0.000913 0.100574 2.451953 9.308760 0.914025 -1.636855 -16.128474 -3.033897 5.716838 -3.791960 -1.635014 3.527466 -0.901001 0.866926 -24.724597 -0.000061 0.000027 0.000149 -1.038548 -0.279914 17.136999 2.289796 -0.402768 -0.730247 0.815316 -0.150967 -3.520584 -0.000029 0.000324 33.480054 -0.441787 -0.458728 -72.796129 -0.000060 -0.000072 -21.993996 0.000020 -0.000008 -0.026805 0.000002 -0.000016 0.012749 -0.000095 -0.000110 -34.639902 0.000036 0.000015 0.015175 0.000025 -0.000010 0.012721 -0.000052 -0.000053 -24.223471 0.000013 -0.000013 -0.000048 -0.000445 0.000219 0.000124 -5.541772 -7.713080 9.362128 0.150084 -0.012651 -0.119590 0.024158 -0.030021 11.786621 -0.127849 -0.003174 -0.084764 0.023211 -0.032329 11.716009 1.885262 -1.270153 -2.717403 0.050247 0.015082 11.756046 -0.124753 0.271974 -3.822348 0.050135 0.014754 11.743166 -0.146041 -0.120291 10.601859 -0.002003 -0.023890 11.750674 0.000072 -0.000033 11.750680 
0.000000 0.000000 0.000000 0.000008 0.000000 -0.000000 -0.000000 0.000000 -0.000000 0.695861 -1.817681 21.828199 -0.986906 0.354019 0.659700 -3.996134 -5.208150 22.987633 0.226206 0.048143 0.078919 -0.009337 1.478718 7.637016 2.224183 -2.014294 72.317599 3.178410 -5.287177 29.355108 0.986955 -0.182837 17.597158 -5.671779 7.020889 -25.415848 4.251646 -0.582105 -21.857848 -5.250943 -1.623319 28.065256 9.237435 -3.958457 -21.376996 -0.669259 0.528695 1.158175 0.000101 -0.000135 0.000004 0.081794 -7.388624 -30.464402 -4.362428 0.620195 -22.449707 5.403209 1.717249 28.966139 -3.716729 8.625703 -16.037773 -0.040855 -0.096388 -0.038116 -0.009299 0.000418 -0.038427 -0.039580 1.447946 -20.739446 0.917530 -0.020778 6.784385 0.724730 -0.169873 0.003766 -0.020465 0.538261 3.239549 0.000078 -0.000112 -0.000055 -0.000052 -0.014928 0.015044 32.316483 3.093912 -11.383848 -39.375228 -14.399432 15.143134 -16.685534 -2.414718 4.343794 0.908044 -0.780603 -5.810316 -1.208678 1.490634 10.978233 -1.512052 -3.850535 11.459883 0.011366 0.166915 -4.080234 10.540805 5.542617 -47.229669 -1.343729 -0.599186 -12.484635 -0.842003 0.003335 -1.335607 -0.781906 0.140334 -0.478839 -0.804184 0.123485 -0.482627 -1.050237 0.936101 4.212182 8.371783 -1.721093 22.158676 -0.135919 0.866960 21.521439 -10.735552 4.191613 -54.956067 -1.605017 -0.585483 -25.848585 -0.203967 2.088462 -0.685219 0.036608 0.063820 2.451908 -0.000913 0.100573 2.451958 9.887318 0.959304 -1.742093 -15.373504 -3.307196 6.903543 -5.734005 -1.591559 2.770154 -0.872604 0.893771 -26.348850 -0.000085 0.000027 0.000156 -0.747652 -0.327089 19.744624 1.910475 -0.328228 -0.361660 0.939109 -0.156578 -1.049391 -0.000029 0.000324 33.480054 -0.441787 -0.458728 -72.796122 -0.000060 -0.000072 -21.994001 0.000020 -0.000008 -0.026807 0.000002 -0.000016 0.012745 -0.000095 -0.000110 -34.639902 0.000036 0.000015 0.015184 0.000025 -0.000010 0.012725 -0.000052 -0.000053 -24.223469 0.000013 -0.000013 -0.000048 -0.000458 0.000219 0.000111 -4.640026 -8.042888 10.661223 0.150082 -0.012646 -0.119592 0.024175 -0.030017 11.786643 -0.127849 -0.003172 -0.084767 0.023225 -0.032326 11.715982 1.843384 -1.245268 -2.641136 0.050262 0.015106 11.756052 -0.124328 0.264811 -3.726020 0.050147 0.014778 11.743166 -0.155639 -0.122791 10.665674 -0.002003 -0.023890 11.750669 0.000071 -0.000033 11.750675 
0.000000 0.000000 0.000000 0.000008 0.000000 -0.000000 -0.000000 0.000000 -0.000000 0.749482 -1.793704 23.646911 -0.842353 0.339844 0.619580 -3.325233 -4.830360 27.200854 0.252254 -0.039180 -2.185769 0.580009 1.458764 -4.782841 -1.129652 -1.042988 72.075243 5.080633 -4.317829 48.003857 0.894417 -0.600666 18.324819 -5.627588 7.645672 -26.560481 4.478716 -0.661755 -23.074239 -5.459745 -1.752830 29.303332 9.577665 -4.544264 -23.312049 -1.047348 0.648898 1.794331 0.000101 -0.000136 0.000004 -0.225757 -7.055544 -32.073308 -4.485443 0.664099 -23.109899 5.652484 1.878130 30.460615 -3.582997 8.823816 -17.814405 -0.014010 -0.093949 -0.041353 -0.009299 0.000417 -0.038427 0.003205 1.980757 -20.371529 0.917530 -0.020777 6.784389 0.774696 -0.169094 0.002624 -0.020465 0.538261 3.239552 0.000078 -0.000112 -0.000052 -0.000052 -0.014928 0.015041 33.112484 2.346454 -11.309110 -35.146709 -14.408631 16.051327 -21.975442 -2.198765 4.844799 0.894600 -0.789995 -6.415083 -1.300842 1.731581 13.169657 -2.059383 -4.429689 10.524803 0.005568 0.102440 -2.501850 12.149423 5.624659 -52.989536 -1.258636 -0.606643 -18.951429 -0.830413 0.003816 -1.435654 -0.781932 0.140334 -0.478841 -0.804184 0.123485 -0.482619 -1.026844 0.856969 5.342628 8.947124 -1.978731 22.372461 -0.258216 1.149213 29.028089 -10.692735 4.819688 -64.043924 -2.363073 -0.652814 -29.373041 -0.280636 2.101363 -0.684259 0.036635 0.063820 2.451912 -0.000913 0.100573 2.451954 10.297135 0.990745 -1.816883 -13.998519 -3.598867 8.390050 -7.637543 -1.524355 2.029317 -0.852684 0.914462 -27.982416 -0.000085 0.000014 0.000139 -0.348317 -0.368596 22.567666 1.463787 -0.111889 0.973531 1.073515 -0.144773 0.225938 -0.000029 0.000324 33.480054 -0.441787 -0.458728 -72.796122 -0.000060 -0.000072 -21.993998 0.000020 -0.000008 -0.026805 0.000002 -0.000016 0.012747 -0.000095 -0.000110 -34.639905 0.000035 0.000015 0.015178 0.000025 -0.000010 0.012721 -0.000052 -0.000053 -24.223469 0.000013 -0.000013 -0.000048 -0.000460 0.000216 0.000115 -3.410230 -8.526763 12.515594 0.150082 -0.012646 -0.119593 0.024189 -0.030006 11.786663 -0.127849 -0.003174 -0.084768 0.023239 -0.032321 11.715964 1.802288 -1.220920 -2.566324 0.050274 0.015129 11.756050 -0.123939 0.257815 -3.631554 0.050161 0.014801 11.743156 -0.162158 -0.126964 10.686664 -0.002003 -0.023891 11.750665 0.000071 -0.000033 11.750679 
0.000000 0.000000 0.000000 0.000008 0.000000 -0.000000 -0.000000 0.000000 -0.000000 0.804607 -1.765407 25.464584 -0.704323 0.325811 0.579714 -2.649525 -4.320002 31.821657 0.259105 -0.230482 -3.304763 0.896030 0.677571 -15.224929 -4.008742 1.107278 57.789657 4.398480 -1.187988 73.180013 0.825383 -1.105338 18.758983 -5.618143 8.330424 -27.282822 4.705047 -0.746579 -24.295657 -5.638849 -1.868983 30.378598 9.887069 -5.188069 -25.248149 -1.449367 0.678635 2.473293 0.000101 -0.000134 0.000004 -0.493363 -6.619256 -33.342241 -4.599817 0.706361 -23.726119 5.881117 2.033972 31.853810 -3.436085 9.026514 -19.571057 0.013639 -0.086539 -0.042160 -0.009299 0.000418 -0.038427 0.042189 2.618777 -19.941115 0.917530 -0.020777 6.784387 0.825157 -0.168332 0.001492 -0.020467 0.538261 3.239555 0.000078 -0.000112 -0.000056 -0.000052 -0.014928 0.015038 33.377355 2.078217 -11.273992 -30.304364 -14.720009 17.321554 -25.801871 -3.304539 5.759380 0.872615 -0.793123 -6.426345 -1.566995 1.973878 15.050308 -2.471828 -5.227307 7.782882 -0.001124 -0.057008 1.389841 12.808979 5.530404 -56.415638 -0.439025 -0.150000 -30.021458 -0.818575 0.004293 -1.536708 -0.781986 0.140333 -0.478852 -0.804185 0.123486 -0.482623 -0.967483 0.703335 6.348800 9.036121 -2.043101 21.471909 -0.452694 1.464088 38.063852 -10.509902 4.126630 -70.879885 -3.708193 0.371727 -38.250873 -0.358131 2.114434 -0.683274 0.036688 0.063820 2.451905 -0.000914 0.100573 2.451955 10.480488 1.004640 -1.850396 -12.272831 -3.710138 9.384822 -9.187626 -1.611224 1.830140 -0.833901 0.934329 -29.787633 -0.000130 -0.000043 0.000106 -0.112440 -0.404553 24.976132 1.375833 0.516814 5.105692 1.252094 -0.089200 1.391578 -0.000029 0.000324 33.480054 -0.441787 -0.458728 -72.796122 -0.000060 -0.000072 -21.993998 0.000020 -0.000008 -0.026805 0.000002 -0.000016 0.012749 -0.000095 -0.000110 -34.639902 0.000036 0.000015 0.015182 0.000025 -0.000010 0.012721 -0.000052 -0.000053 -24.223469 0.000013 -0.000013 -0.000044 -0.000492 0.000238 0.000130 -2.151272 -8.975067 14.400923 0.150083 -0.012646 -0.119592 0.024223 -0.030000 11.786707 -0.127848 -0.003175 -0.084769 0.023269 -0.032318 11.715917 1.760751 -1.196387 -2.490733 0.050301 0.015177 11.756057 -0.123593 0.250726 -3.536156 0.050184 0.014849 11.743139 -0.166993 -0.128108 10.654842 -0.002003 -0.023891 11.750671 0.000071 -0.000033 11.750674 
